<svg width="23" height="22" viewBox="0 0 23 22" fill="none" xmlns="http://www.w3.org/2000/svg">
<path d="M21.1 9.2H11.7V12.9H17.2C17.1 13.8 16.5 15.2 15.2 16.1C14.4 16.7 13.2 17.1 11.7 17.1C9.09995 17.1 6.79995 15.4 5.99995 12.9C5.79995 12.3 5.69995 11.6 5.69995 10.9C5.69995 10.2 5.79995 9.5 5.99995 8.9C6.09995 8.7 6.09995 8.5 6.19995 8.4C7.09995 6.3 9.19995 4.8 11.7 4.8C13.6 4.8 14.8 5.6 15.6 6.3L18.4 3.5C16.6999 2 14.4 1 11.7 1C7.79995 1 4.39995 3.2 2.79995 6.5C2.09995 7.9 1.69995 9.4 1.69995 11C1.69995 12.6 2.09995 14.1 2.79995 15.5C4.39995 18.8 7.79995 21 11.7 21C14.4 21 16.6999 20.1 18.2999 18.6C20.1999 16.9 21.2999 14.3 21.2999 11.2C21.2999 10.4 21.2 9.8 21.1 9.2Z" stroke="#3B3B3B" stroke-width="1.5" stroke-miterlimit="10" stroke-linecap="round" stroke-linejoin="round"/>
</svg>
