<svg width="28" height="27" viewBox="0 0 28 27" fill="none" xmlns="http://www.w3.org/2000/svg">
<path d="M16.1066 3.00154L18.2994 7.3872C18.5984 7.99771 19.3958 8.58329 20.0686 8.69543L24.0431 9.35577C26.5848 9.77939 27.1829 11.6234 25.3514 13.4424L22.2615 16.5323C21.7382 17.0556 21.4516 18.0648 21.6136 18.7874L22.4982 22.6124C23.1959 25.6401 21.5887 26.8112 18.9099 25.2289L15.1846 23.0236C14.5118 22.6249 13.4029 22.6249 12.7176 23.0236L8.99232 25.2289C6.32604 26.8112 4.70633 25.6276 5.40405 22.6124L6.28866 18.7874C6.45063 18.0648 6.16407 17.0556 5.64078 16.5323L2.55087 13.4424C0.731818 11.6234 1.3174 9.77939 3.8591 9.35577L7.83361 8.69543C8.49395 8.58329 9.29135 7.99771 9.59037 7.3872L11.7832 3.00154C12.9793 0.621813 14.9229 0.621813 16.1066 3.00154Z" stroke="#D4A80A" stroke-width="1.86889" stroke-linecap="round" stroke-linejoin="round"/>
</svg>
